PathFileType	4	(X/Y/Z)	 s06c0303.trc
DataRate	CameraRate	NumFrames	NumMarkers	Units	OrigDataRate	OrigDataStartFrame	OrigNumFrames
200	200	6	48	mm	200	751	2000
Frame#	Time	racr			lacr			c7			jug			rlel			rdr			llel			ldr			s2			lic			ric			lasi			rasi			rpsi			lpsi			rgt			lgt			rth1			rth2			rth3			rth4			rlfc			rmfc			rsh1			rsh2			rsh3			rsh4			rlmal			rcal			rtoe			rmt5			lth1			lth2			lth4			lth3			llfc			lmfc			llmal			lcal			lmt5			lsh1			lsh2			lsh3			lsh4			ltoe			SBIKE			LBIKE			RBIKE			
		X1	Y1	Z1	X2	Y2	Z2	X3	Y3	Z3	X4	Y4	Z4	X5	Y5	Z5	X6	Y6	Z6	X7	Y7	Z7	X8	Y8	Z8	X9	Y9	Z9	X10	Y10	Z10	X11	Y11	Z11	X12	Y12	Z12	X13	Y13	Z13	X14	Y14	Z14	X15	Y15	Z15	X16	Y16	Z16	X17	Y17	Z17	X18	Y18	Z18	X19	Y19	Z19	X20	Y20	Z20	X21	Y21	Z21	X22	Y22	Z22	X23	Y23	Z23	X24	Y24	Z24	X25	Y25	Z25	X26	Y26	Z26	X27	Y27	Z27	X28	Y28	Z28	X29	Y29	Z29	X30	Y30	Z30	X31	Y31	Z31	X32	Y32	Z32	X33	Y33	Z33	X34	Y34	Z34	X35	Y35	Z35	X36	Y36	Z36	X37	Y37	Z37	X38	Y38	Z38	X39	Y39	Z39	X40	Y40	Z40	X41	Y41	Z41	X42	Y42	Z42	X43	Y43	Z43	X44	Y44	Z44	X45	Y45	Z45	X46	Y46	Z46	X47	Y47	Z47	X48	Y48	Z48	
751	3.7550	690.094712	1280.700679	-94.171836	720.341045	1190.136953	-390.691957	726.250315	1313.012152	-252.463357	665.485097	1161.424930	-223.666522	590.785887	1085.641443	68.166449	718.016550	917.511131	-30.288969	519.820692	1028.628443	-494.725470	694.663562	931.982300	-407.292318	145.214769	1225.958724	-214.005523	287.224313	1145.589741	-392.177848	295.056451	1177.930266	-62.793706	315.693092	1130.579673	-350.302030	316.034384	1127.654628	-98.352830	186.624485	1259.791656	-187.448673	183.261518	1255.429613	-247.151610	260.335991	1099.202886	-17.413991	241.570653	1087.633058	-411.211251	337.943906	998.869857	-14.860704	400.742870	933.758405	-23.318637	423.428600	850.528529	-21.881426	427.364591	951.794989	-43.159192	434.055163	747.686131	-37.476988	415.217304	729.292478	-146.426060	340.824501	668.221349	-14.317647	284.432178	605.884373	-36.000736	202.183887	573.472479	-39.170928	298.318610	591.518953	-71.365887	128.955541	539.436778	-44.280168	80.211256	580.218166	-93.448437	152.462459	312.116397	-89.407288	102.063114	398.963011	-22.066013	261.079320	960.493446	-431.624453	308.433236	887.577387	-427.017526	342.903555	899.046572	-419.490608	312.306796	798.450982	-419.577774	329.916206	681.135862	-399.317736	339.262215	665.079723	-286.392652	247.534223	313.223968	-370.930552	176.775880	290.272090	-320.729816	365.919027	239.343301	-399.689607	307.043475	571.876679	-416.510274	310.000960	487.144334	-394.813079	269.711924	408.835158	-388.327362	338.435500	486.250676	-367.135272	453.392493	240.220724	-342.365604	-163.895206	861.237664	-216.610099	-55.345489	83.838893	-405.551733	-52.607353	80.337530	-8.183484	
752	3.7600	688.790817	1282.439393	-93.173333	722.060423	1190.431360	-387.830136	725.781915	1314.883998	-250.607747	666.615650	1162.609479	-222.144169	590.028263	1085.555417	68.154819	718.093433	917.703028	-30.290540	522.065401	1029.989015	-495.261829	695.097745	931.765321	-407.254096	146.502033	1221.725348	-218.347111	290.049390	1140.819457	-393.288119	293.837361	1179.427801	-64.207454	316.719026	1126.759029	-350.097703	315.597116	1128.544167	-98.440426	185.751780	1257.479482	-191.778215	183.593323	1251.825657	-251.567535	259.859036	1102.155122	-17.760217	242.880621	1081.341050	-411.916316	340.933333	1002.822237	-14.844133	404.862491	939.417421	-21.858194	430.114516	856.620469	-20.321968	431.835800	957.915515	-41.364905	442.976886	754.009129	-36.006666	425.889113	736.024465	-146.175477	349.783524	675.145905	-13.095945	292.466412	613.596719	-35.067951	209.770001	582.398075	-38.181537	305.990141	599.342109	-69.983200	135.712579	548.919581	-43.283722	87.265477	589.704761	-92.686075	158.663910	321.256718	-89.514383	108.472688	408.158395	-21.928253	259.995507	953.301652	-431.412944	305.913063	879.484600	-425.861433	340.374570	890.113526	-418.501971	307.819039	790.432212	-418.132501	323.418183	673.294275	-397.624662	331.894388	657.465028	-284.089504	242.451315	304.972488	-370.910865	171.909868	283.069091	-320.823152	360.465018	229.664135	-399.311527	301.145850	563.864290	-415.346412	304.458119	479.254106	-393.885927	264.569865	400.596004	-387.849472	332.541143	478.438920	-365.798895	447.923278	229.344965	-341.927029	-164.087145	861.328937	-216.849164	-55.334761	83.811558	-405.508346	-52.599440	80.328843	-8.148364	
753	3.7650	687.421958	1284.105600	-91.938837	723.768731	1191.563337	-385.979289	725.188751	1316.740838	-248.405724	667.361172	1163.881419	-220.364378	589.897116	1085.399316	68.685426	718.333917	917.635128	-29.995447	524.384819	1031.596371	-495.124768	695.959876	932.140140	-407.245704	148.245517	1217.902635	-223.168682	293.009249	1136.015515	-394.287959	292.309102	1181.066434	-65.760702	317.731049	1122.975810	-349.908523	315.195256	1129.705802	-98.550972	185.281653	1254.832251	-196.483250	184.238722	1248.006183	-256.240037	259.689414	1105.404990	-18.351768	244.564321	1074.855159	-411.706564	343.670823	1006.829722	-14.695873	409.909290	944.626406	-20.848971	436.465343	862.799822	-18.960809	436.166778	964.094846	-39.571596	451.641089	761.078532	-34.610314	434.825203	742.056988	-143.805649	358.572814	682.362266	-12.134209	300.592225	621.423060	-34.025049	217.589913	591.047730	-37.245531	315.020732	607.083548	-68.641095	142.848850	557.777908	-42.522622	94.330212	598.752881	-92.415134	165.460497	330.082003	-89.738532	115.406462	416.983643	-21.807840	258.884173	946.622347	-431.142959	302.959976	872.021501	-425.314940	337.798536	881.758779	-417.209889	303.159724	782.807258	-416.746871	316.449072	665.712431	-395.759273	323.218434	649.978425	-282.756233	236.819394	297.205372	-370.735102	166.516675	276.412088	-320.835602	354.435550	220.517028	-399.012661	294.576182	556.495156	-414.458054	298.244835	471.552984	-392.994403	258.712864	392.803263	-387.455319	326.176310	470.890247	-364.707557	441.857868	218.734559	-341.509537	-163.864226	861.466499	-217.341472	-55.298383	83.849485	-405.517159	-52.572109	80.322611	-8.130314	
754	3.7700	686.002258	1285.680388	-90.623922	725.336581	1193.236725	-384.251956	724.536296	1318.561967	-246.073501	667.820037	1165.200523	-218.543905	588.764535	1085.290723	68.293139	718.393942	917.706928	-29.866223	526.666930	1033.297828	-494.413813	697.301964	931.844565	-404.441825	147.701749	1214.733262	-227.596917	296.054388	1131.237221	-395.151485	290.409745	1182.809297	-67.690311	318.724802	1119.250398	-349.738603	314.358548	1130.999335	-99.018289	184.616589	1252.267441	-201.325790	184.719524	1244.045558	-260.863895	259.347555	1108.781678	-19.102697	246.366394	1068.427277	-411.931814	346.066161	1011.018745	-14.743024	414.005079	950.404612	-19.922937	442.297979	869.105449	-17.958053	440.025597	970.559770	-37.889772	460.238506	768.239180	-33.196807	444.406546	748.373260	-142.617968	367.122261	689.786798	-11.113041	308.795663	629.296522	-32.811133	225.400386	599.726663	-36.367746	322.825865	614.143648	-67.885669	150.152123	566.339620	-41.770751	101.580551	607.401388	-91.947743	173.076191	338.773762	-89.891920	122.949980	425.336767	-21.750876	257.821510	940.452747	-431.006349	300.011749	864.896138	-424.621927	335.186047	873.816525	-416.387833	298.100754	775.789218	-415.477155	309.123098	658.737787	-394.513601	314.556198	642.820254	-281.587551	230.703179	290.024016	-370.421444	160.725010	270.541743	-320.706123	347.872216	211.756555	-398.679387	286.793726	548.983914	-412.536670	291.332018	464.487343	-392.341103	252.111640	385.607792	-387.285706	319.215392	463.917122	-364.036687	435.194167	208.518106	-341.262511	-164.020115	861.261590	-216.743568	-55.281060	83.856114	-405.513715	-52.556058	80.314448	-8.103395	
755	3.7750	684.787623	1287.260924	-88.974545	726.706941	1195.643834	-382.354099	723.856470	1320.328385	-243.668634	668.196282	1166.528977	-216.465184	588.021414	1085.522272	68.667558	719.448461	917.663532	-29.708398	528.831068	1035.185162	-493.207330	698.514734	931.879340	-403.728365	147.323469	1211.941511	-231.785599	299.073384	1126.462778	-395.873716	289.156739	1184.982080	-68.653679	319.695928	1115.603175	-349.592056	314.961621	1133.130877	-98.439412	184.171382	1249.500969	-206.416639	185.123718	1240.069437	-265.337374	259.019469	1112.173531	-20.028738	248.454741	1062.132518	-412.211470	348.330405	1015.231307	-14.611374	418.164846	956.313210	-19.474499	448.055355	875.752545	-16.879119	443.553445	977.227131	-36.285561	468.544514	775.703612	-31.911508	453.887868	754.963333	-142.111188	375.514332	697.272517	-10.225565	316.610988	637.113717	-32.061427	233.380715	608.053159	-35.485660	330.872495	621.670202	-66.804958	157.491835	574.620916	-41.249428	108.730998	615.516154	-91.712909	181.481686	347.345293	-90.033471	130.866116	433.530359	-21.761038	256.695607	934.915446	-430.766732	296.791679	858.219332	-424.031040	332.222645	866.362225	-415.800262	292.595631	769.235311	-414.495851	301.335065	652.402886	-393.581266	305.827834	635.936130	-280.783327	224.191464	283.425312	-370.066021	154.553012	265.309865	-320.370074	340.725780	203.486992	-398.361202	279.183814	542.587273	-412.013889	283.851904	458.155171	-391.901076	244.896171	379.047907	-387.026907	311.855878	457.368758	-363.634138	428.065829	198.557430	-340.996474	-164.062640	861.239467	-216.745823	-55.272258	83.791828	-405.470470	-52.527542	80.325577	-8.078367	
756	3.7800	683.593181	1288.812156	-87.263876	727.908113	1198.571341	-380.478834	723.247450	1322.027063	-241.279457	668.276235	1167.926207	-214.419980	587.496920	1085.670897	69.003610	718.465301	917.952202	-29.789403	530.865104	1037.485320	-491.676268	700.431837	930.656679	-400.857774	148.303972	1208.069779	-236.535988	302.041983	1121.989478	-396.457396	287.385858	1186.551211	-70.463023	320.640069	1112.054524	-349.472994	314.697278	1134.644940	-98.814853	183.826016	1246.350648	-211.074991	185.688762	1236.178420	-269.955670	258.649397	1115.141380	-21.384114	250.800464	1056.200756	-412.467585	350.312701	1019.270844	-14.370804	421.795116	962.289041	-18.627475	453.481458	882.409912	-15.929175	446.614818	983.447710	-34.632912	476.537855	783.524463	-30.576943	463.031846	761.744324	-141.078238	383.702785	704.903205	-9.389075	323.609857	644.839258	-31.959119	241.296457	616.187302	-34.732193	339.071335	628.550245	-65.283770	164.864954	582.562609	-40.831198	115.943370	623.072662	-91.414046	190.435498	355.493106	-90.247951	139.044880	441.300892	-21.948584	255.612991	930.020970	-430.552860	293.410497	852.171968	-423.588533	329.063254	859.287608	-415.390188	286.638026	763.369781	-413.796026	293.232639	646.758254	-392.937379	297.547397	629.609905	-280.188534	217.342505	277.685076	-369.674328	148.162914	260.962600	-319.991283	333.216182	195.702851	-398.120249	270.957137	536.917727	-411.402267	276.028544	452.303551	-391.596497	237.286913	373.172513	-386.729366	304.188142	451.562789	-363.492880	420.474878	189.099250	-340.797521	-164.363386	861.358376	-217.167953	-55.254261	83.780502	-405.487482	-52.537362	80.362460	-8.046034	
